<?xml version="1.0" encoding="UTF-8" standalone="no"?>

<svg
   width="139.83766mm"
   height="135.97397mm"
   viewBox="0 0 139.83766 135.97397"
   version="1.1"
   id="svg1"
   xml:space="preserve"
   inkscape:version="1.4.3 (0d15f75042, 2025-12-25)"
   sodipodi:docname="terradrift.svg"
   xmlns:inkscape="http://www.inkscape.org/namespaces/inkscape"
   xmlns:sodipodi="http://sodipodi.sourceforge.net/DTD/sodipodi-0.dtd"
   xmlns="http://www.w3.org/2000/svg"
   xmlns:svg="http://www.w3.org/2000/svg"><sodipodi:namedview
     id="namedview1"
     pagecolor="#ffffff"
     bordercolor="#000000"
     borderopacity="0.25"
     inkscape:showpageshadow="2"
     inkscape:pageopacity="0.0"
     inkscape:pagecheckerboard="0"
     inkscape:deskcolor="#d1d1d1"
     inkscape:document-units="mm"
     inkscape:zoom="1.4142136"
     inkscape:cx="278.95363"
     inkscape:cy="147.07821"
     inkscape:window-width="2556"
     inkscape:window-height="1359"
     inkscape:window-x="26"
     inkscape:window-y="23"
     inkscape:window-maximized="0"
     inkscape:current-layer="layer1" /><defs
     id="defs1"><inkscape:path-effect
       effect="bspline"
       id="path-effect427"
       is_visible="true"
       lpeversion="1.3"
       weight="33.333333"
       steps="2"
       helper_size="0"
       apply_no_weight="true"
       apply_with_weight="true"
       only_selected="false"
       uniform="false" /><inkscape:path-effect
       effect="bspline"
       id="path-effect426"
       is_visible="true"
       lpeversion="1.3"
       weight="33.333333"
       steps="2"
       helper_size="0"
       apply_no_weight="true"
       apply_with_weight="true"
       only_selected="false"
       uniform="false" /><inkscape:path-effect
       effect="bspline"
       id="path-effect425"
       is_visible="true"
       lpeversion="1.3"
       weight="33.333333"
       steps="2"
       helper_size="0"
       apply_no_weight="true"
       apply_with_weight="true"
       only_selected="false"
       uniform="false" /><inkscape:path-effect
       effect="bspline"
       id="path-effect424"
       is_visible="true"
       lpeversion="1.3"
       weight="33.333333"
       steps="2"
       helper_size="0"
       apply_no_weight="true"
       apply_with_weight="true"
       only_selected="false"
       uniform="false" /><inkscape:path-effect
       effect="bspline"
       id="path-effect418"
       is_visible="true"
       lpeversion="1.3"
       weight="33.333333"
       steps="2"
       helper_size="0"
       apply_no_weight="true"
       apply_with_weight="true"
       only_selected="false"
       uniform="false" /><inkscape:path-effect
       effect="bspline"
       id="path-effect417"
       is_visible="true"
       lpeversion="1.3"
       weight="33.333333"
       steps="2"
       helper_size="0"
       apply_no_weight="true"
       apply_with_weight="true"
       only_selected="false"
       uniform="false" /></defs><g
     inkscape:label="Layer 1"
     inkscape:groupmode="layer"
     id="layer1"
     transform="translate(-37.023642,-78.401266)"><path
       style="display:inline;opacity:1;fill:#1b91a5;fill-opacity:1;stroke:none;stroke-width:5.30834;stroke-dasharray:none;stroke-opacity:1"
       d="m 48.97502,167.42346 c 1.725114,5.3734 3.709814,9.74359 5.672322,13.04767 1.962509,3.30409 3.902748,5.54198 6.151731,7.6311 2.248984,2.08913 4.80657,4.02937 7.772142,5.76571 2.965571,1.73635 6.338942,3.26869 9.177724,4.28845 2.838783,1.01975 5.142817,1.52686 7.253991,1.90169 2.111174,0.37483 4.029362,0.61736 5.782243,0.80477 1.752881,0.18742 3.340348,0.31971 5.738166,0.35278 2.397818,0.0331 5.605831,-0.0331 8.152461,-0.13229 2.54663,-0.0992 4.43175,-0.23152 6.44371,-0.50162 2.01196,-0.2701 4.15063,-0.67799 6.20668,-1.08589 2.05605,-0.4079 4.02937,-0.81579 5.34127,-1.11345 1.31189,-0.29766 1.96232,-0.48507 2.61275,-0.67248 2.07257,-0.59531 4.14514,-1.19063 6.32797,-1.90722 2.18284,-0.71658 4.47585,-1.55441 6.576,-2.3592 2.10015,-0.80478 4.00731,-1.57646 5.60033,-2.29856 1.59303,-0.7221 2.87183,-1.39457 4.90584,-2.39228 2.03401,-0.99771 4.8231,-2.3206 7.61225,-3.64352 -0.88513,1.70055 -1.77025,3.40106 -2.88202,4.70731 -1.11178,1.30624 -2.4501,2.21809 -3.70787,3.20228 -1.25777,0.98418 -2.43484,2.04058 -4.45226,3.20272 -2.01741,1.16214 -4.87495,2.42988 -7.97464,4.04165 -3.09968,1.61177 -6.44116,3.56737 -9.45996,4.6636 -3.0188,1.09622 -5.71456,1.33294 -8.04321,1.8322 -2.32865,0.49927 -4.2899,1.26103 -7.17236,1.82194 -2.88245,0.56092 -6.68577,0.92092 -10.50326,1.15739 -3.817495,0.23648 -7.648724,0.34938 -10.63422,0.22622 -2.985495,-0.12316 -5.124912,-0.48239 -7.08483,-0.9418 -1.959918,-0.4594 -3.740117,-1.01895 -5.090781,-1.3652 -1.350664,-0.34626 -2.271645,-0.4792 -3.139745,-0.70725 -0.8681,-0.22806 -1.683217,-0.55121 -3.11285,-1.37639 -1.429634,-0.82517 -3.473619,-2.15228 -5.060988,-3.12472 -1.587369,-0.97244 -2.717936,-1.5901 -4.134329,-2.71751 -1.416394,-1.1274 -3.118448,-2.76442 -4.612797,-4.04317 -1.494349,-1.27875 -2.780815,-2.19908 -3.95594,-3.41067 -1.175125,-1.21159 -2.23877,-2.7143 -3.24735,-4.27733 -1.008581,-1.56304 -1.961982,-3.18622 -2.618267,-4.61823 -0.656284,-1.43202 -1.01537,-2.67269 -1.555341,-3.98816 -0.539971,-1.31547 -1.260766,-2.70559 -2.028214,-4.30366 -0.767448,-1.59807 -1.581452,-3.40389 -1.841314,-7.73755 -0.259862,-4.33366 0.03446,-11.19475 0.914391,-11.43706 0.879927,-0.2423 2.345461,6.13433 4.070575,11.50773 z m 4.372709,-48.80523 c 0,0 -3.414369,15.76222 -3.414369,15.76222 -3.507912,-10.81996 -7.015823,-21.63992 -7.974638,-29.56786 -0.958814,-7.92793 0.631408,-12.963632 1.785129,-15.224282 1.15372,-2.26065 1.870879,-1.746166 2.588052,-1.231672 -0.109135,1.044578 -0.21827,2.089157 -0.247502,3.348122 -0.02923,1.258966 0.02144,2.73226 0.399519,5.146906 0.378082,2.414647 1.083549,5.770486 1.925457,8.744436 0.841909,2.97396 1.820209,5.56587 2.666012,7.67258 0.845803,2.10671 1.559064,3.72811 2.27234,5.34955 z"
       id="path425"
       inkscape:path-effect="#path-effect425"
       inkscape:original-d="m 48.715435,168.42667 c 1.984699,4.37019 3.969399,8.74038 5.954098,13.11057 1.940317,2.23798 3.880556,4.47587 5.820833,6.7138 2.55769,1.94032 5.115277,3.88056 7.672917,5.82084 3.373506,1.5324 6.746875,3.06475 10.120312,4.59713 2.304127,0.50713 4.608161,1.01424 6.91224,1.52136 1.918269,0.24254 3.836458,0.48506 5.754687,0.7276 1.587532,0.13229 3.175,0.26458 4.7625,0.39688 3.208136,-0.0661 6.416148,-0.1323 9.624218,-0.19844 1.88519,-0.1323 3.77031,-0.26459 5.65547,-0.39688 2.13876,-0.40791 4.27743,-0.8158 6.41615,-1.2237 1.97338,-0.4079 3.9467,-0.81579 5.92005,-1.22369 0.65044,-0.18742 1.9513,-0.56224 1.9513,-0.56224 0,0 4.14514,-1.19063 6.21771,-1.78594 2.2931,-0.83786 4.58611,-1.67569 6.87916,-2.51354 1.90725,-0.77172 3.81441,-1.5434 5.72162,-2.31511 1.27884,-0.67249 2.55764,-1.34496 3.83646,-2.01744 2.7892,-1.32295 8.36744,-3.96875 8.36744,-3.96875 0,0 -1.77025,3.40106 -2.6554,5.10165 -1.3384,0.9119 -2.67672,1.82375 -4.01512,2.73566 -1.17714,1.05646 -2.35421,2.11286 -3.53135,3.16932 -2.85769,1.26782 -5.71523,2.53556 -8.57293,3.80338 -3.34167,1.95572 -6.68315,3.91132 -10.02483,5.86704 -2.69592,0.23673 -5.39168,0.47345 -8.08761,0.71018 -1.96137,0.7618 -3.92262,1.52356 -5.88399,2.28536 -3.80354,0.36002 -7.60686,0.72003 -11.41039,1.08006 -3.831455,0.11291 -7.662684,0.22582 -11.494135,0.33874 -2.139541,-0.35924 -4.278958,-0.71846 -6.418497,-1.07771 -1.780297,-0.55957 -3.560494,-1.11912 -5.340789,-1.67869 -0.921034,-0.13294 -1.842015,-0.26588 -2.763049,-0.39882 -0.815166,-0.32317 -1.630283,-0.64632 -2.445448,-0.96949 -2.044103,-1.32718 -4.088086,-2.65429 -6.13219,-3.98147 -1.130634,-0.6177 -2.261202,-1.23536 -3.391837,-1.85306 -1.702154,-1.63711 -3.404205,-3.27413 -5.106358,-4.91124 -1.286545,-0.92039 -2.573012,-1.84072 -3.859559,-2.76111 -1.063706,-1.50279 -2.127348,-3.0055 -3.19105,-4.50829 -0.953457,-1.62328 -1.906859,-3.24646 -2.86032,-4.86974 -0.359109,-1.24075 -0.718196,-2.48142 -1.077304,-3.72217 -0.720835,-1.39019 -1.441627,-2.78031 -2.162465,-4.17051 -0.814061,-1.80594 -1.628066,-3.61176 -2.442125,-5.41771 0.294338,-6.86137 0.588665,-13.72246 0.882995,-20.58365 1.465522,6.37658 2.931057,12.75321 4.396586,19.12982 z m 4.632294,-49.80844 c 0,0 -3.414369,15.76222 -3.414369,15.76222 0,0 -7.015825,-21.63992 -10.523737,-32.45989 1.590285,-5.0359 3.180507,-10.071602 4.770761,-15.107406 0.717187,0.514505 2.151519,1.543482 2.151519,1.543482 0,0 -0.21827,2.089157 -0.327405,3.133735 0.05067,1.473353 0.10134,2.946647 0.15201,4.41997 0.705494,3.35597 1.41096,6.711809 2.11644,10.067709 0.978338,2.59201 1.956636,5.18392 2.934954,7.77587 0.71329,1.62147 2.139827,4.86431 2.139827,4.86431 z"
       sodipodi:nodetypes="scccccccccccccccccccccccccccccccccccccccss" /><path
       style="display:inline;fill:#28b5bc;fill-opacity:1;stroke:#28b7bf;stroke-width:0;stroke-dasharray:none;stroke-opacity:1"
       d="m 155.75118,117.6766 c 2.4896,4.74759 7.56718,13.75421 12.64476,22.76082 0.13608,-2.15301 0.27215,-4.30603 0.30161,-6.14874 0.0294,-1.8427 -0.0477,-3.37505 -0.21309,-4.99012 -0.16536,-1.61508 -0.41891,-3.31276 -0.98668,-4.80658 -0.56776,-1.49382 -1.44967,-2.78362 -2.33715,-3.91914 -0.88747,-1.13553 -1.7804,-2.11666 -3.73174,-3.52779 -1.95134,-1.41114 -4.96085,-3.25212 -6.51489,-3.92837 -1.55404,-0.67626 -1.65242,-0.18768 0.83718,4.55992 z"
       id="path417"
       inkscape:path-effect="#path-effect417"
       inkscape:original-d="m 153.1632,113.41758 c 5.07758,9.00661 15.23274,27.01984 15.23274,27.01984 0,0 0.27215,-4.30603 0.40823,-6.45903 -0.0772,-1.53241 -0.15434,-3.06476 -0.23151,-4.59714 -0.25356,-1.69777 -0.50711,-3.39545 -0.76068,-5.09323 -0.88196,-1.28986 -1.76387,-2.57966 -2.64584,-3.86953 -0.89298,-0.98118 -1.78592,-1.9623 -2.6789,-2.94349 -3.00969,-1.84109 -6.0192,-3.68207 -9.0289,-5.52317 -0.0984,0.48859 -0.19676,0.97717 -0.29514,1.46575 z"
       sodipodi:nodetypes="ccccccccc" /><path
       id="path428"
       style="display:inline;fill:#28b5bc;fill-opacity:1;stroke:none;stroke-width:5.64444;stroke-dasharray:none;stroke-opacity:1"
       d="m 59.615234,81.382031 c -4.35274,0.142214 -6.239558,0.592025 -10.490692,1.662105 -1.987423,0.427477 -4.44813,2.785303 -5.863412,4.365773 -2.012238,2.031936 -2.648032,4.923153 -3.106833,7.644779 -0.864694,6.232872 0.31603,12.525972 1.185109,18.663622 1.84011,6.61044 3.707548,13.27451 5.992585,19.764 -0.81683,5.67054 -2.41521,11.17011 -3.727084,16.7336 -0.438972,4.99182 -0.548142,10.14198 -0.01116,15.12003 0.676701,5.26499 2.226719,10.39157 4.207031,15.30468 2.482531,5.94486 5.924957,11.52598 10.659183,15.8997 4.475839,4.32326 9.736222,7.93408 15.367633,10.35963 7.157059,3.04671 15.615617,5.36241 23.397613,4.44558 9.064443,-0.52696 16.414773,-2.53945 24.263793,-4.88141 8.22643,-2.59376 15.79576,-5.41525 23.20756,-9.83034 8.90746,-5.4131 17.24914,-10.69244 23.44282,-19.15178 1.35733,-1.8493 5.35138,-6.21808 5.65713,-8.50711 0.65694,-3.91023 -0.24419,-9.39741 -1.49479,-13.11599 -2.0492,-6.21545 -4.12983,-13.08039 -7.21393,-18.82518 -5.06177,-9.15631 -9.62968,-16.97771 -15.98705,-25.31004 -2.91211,-3.44126 -6.18545,-6.37287 -10.43764,-7.5304 -2.74225,-0.72343 -6.25386,-2.11688 -9.96472,-2.38028 -1.37898,-0.0271 -4.55837,-0.36989 -7.62929,-0.0318 -5.14049,-2.899043 -10.02294,-6.267956 -15.18913,-9.118748 -5.52209,-3.013564 -13.049268,-6.066515 -19.071887,-7.803738 -7.131243,-2.033648 -13.003848,-2.988846 -20.366776,-3.60292 -0.750924,-0.0866 -6.071321,0.113677 -6.826063,0.126227 z"
       sodipodi:nodetypes="cccccccccccccccccccccccccc" /><path
       style="display:inline;opacity:1;fill:#61dcc7;fill-opacity:1;stroke:none;stroke-width:5.30834;stroke-dasharray:none;stroke-opacity:1"
       d="m 47.228127,86.121878 c 4.034896,-0.08819 8.069791,-0.176389 11.630672,-0.09922 3.560882,0.07717 6.647625,0.319702 9.833683,0.78273 3.186059,0.463028 6.471234,1.146521 10.142369,2.16077 3.671134,1.01425 7.727998,2.359188 11.674738,3.957731 3.946739,1.598542 7.783121,3.450588 11.112491,5.269618 3.32937,1.819029 6.15153,3.604929 8.64304,5.313719 2.49152,1.70878 4.65224,3.34034 6.81301,4.97194 2.73403,0.0882 5.46805,0.17639 7.78318,0.46302 2.31512,0.28664 4.21126,0.7717 6.23976,1.53239 2.02849,0.76069 4.18921,1.79695 6.39409,3.23013 2.20489,1.43318 4.4538,3.26317 6.8461,5.73265 2.3923,2.46948 4.92784,5.57827 7.38629,9.06199 2.45844,3.48372 4.83964,7.34215 6.76891,10.62742 1.92927,3.28527 3.40649,5.99719 4.6302,8.77534 1.22371,2.77816 2.19383,5.62237 2.89939,7.92647 0.70556,2.3041 1.14652,4.06795 1.31188,5.54522 0.16536,1.47727 0.0551,2.66787 -0.0551,3.85849 -3.19705,0.48507 -6.3941,0.97014 -10.3188,1.7198 -3.92469,0.74967 -8.57686,1.76388 -13.40555,2.93247 -4.8287,1.16859 -9.83363,2.49148 -14.84974,3.60495 -5.01611,1.11346 -10.04309,2.01744 -15.78682,2.81119 -5.74373,0.79376 -12.20384,1.47725 -18.664086,2.16076 0,0 8.268226,3.43958 8.268226,3.43958 0,0 70.18073,-11.57552 70.18073,-11.57552 0,0 -4.23333,-27.05364 -4.23333,-27.05364 0,0 -22.35729,-35.98334 -22.35729,-35.98334 0,0 -29.89792,-7.474475 -29.89792,-7.474475 C 108.52327,95.426392 100.8283,91.038718 92.615105,87.929846 84.40191,84.820973 75.670835,82.990975 66.939585,81.16094 Z"
       id="path427"
       inkscape:original-d="m 47.228127,86.121878 c 0,0 8.069791,-0.176389 12.104687,-0.264583 3.086867,0.242539 6.17361,0.485069 9.260417,0.727604 3.28531,0.68352 6.570485,1.367014 9.855729,2.050521 4.057025,1.344992 8.113889,2.68993 12.170833,4.034895 3.836535,1.852121 7.672917,3.704167 11.509377,5.55625 2.82228,1.785975 5.64444,3.571875 8.46666,5.357815 2.16081,1.63163 6.4823,4.89479 6.4823,4.89479 0,0 5.46805,0.17639 8.20208,0.26458 1.89622,0.48508 3.79236,0.97014 5.68854,1.45521 2.16081,1.03631 4.32153,2.07257 6.48229,3.10886 2.24901,1.83007 4.49792,3.66006 6.74688,5.4901 2.53564,3.10892 5.07118,6.21771 7.60677,9.32656 2.3813,3.85859 4.7625,7.71702 7.14375,11.57552 1.47729,2.71204 2.95451,5.42396 4.43177,8.13594 0.97016,2.84433 1.94028,5.68854 2.91042,8.53281 0.44098,1.76393 0.88194,3.52778 1.32291,5.29167 -0.11024,1.19065 -0.33073,3.57187 -0.33073,3.57187 0,0 -6.3941,0.97014 -9.59114,1.45521 -4.65235,1.01426 -9.30452,2.02847 -13.95677,3.04271 -5.00514,1.32294 -10.01007,2.64583 -15.01511,3.96875 -5.02718,0.90401 -10.05416,1.80799 -15.08125,2.71198 -6.46037,0.68352 -19.380726,2.05052 -19.380726,2.05052 0,0 8.268226,3.43958 8.268226,3.43958 0,0 70.18073,-11.57552 70.18073,-11.57552 0,0 -4.23333,-27.05364 -4.23333,-27.05364 0,0 -22.35729,-35.98334 -22.35729,-35.98334 0,0 -29.89792,-7.474475 -29.89792,-7.474475 0,0 -15.38993,-8.775347 -23.084895,-13.16302 C 84.40191,84.820973 66.939585,81.16094 66.939585,81.16094 Z"
       inkscape:path-effect="#path-effect427" /><path
       id="path416"
       style="display:inline;fill:none;fill-opacity:1;stroke:#136479;stroke-width:5.64444;stroke-dasharray:none;stroke-opacity:1"
       d="m 59.615234,81.382031 c -4.35274,0.142214 -6.239558,0.592025 -10.490692,1.662105 -1.987423,0.427477 -4.44813,2.785303 -5.863412,4.365773 -2.012238,2.031936 -2.648032,4.923153 -3.106833,7.644779 -0.864694,6.232872 0.31603,12.525972 1.185109,18.663622 1.84011,6.61044 3.707548,13.27451 5.992585,19.764 -0.81683,5.67054 -2.41521,11.17011 -3.727084,16.7336 -0.438972,4.99182 -0.548142,10.14198 -0.01116,15.12003 0.676701,5.26499 2.226719,10.39157 4.207031,15.30468 2.482531,5.94486 5.924957,11.52598 10.659183,15.8997 4.475839,4.32326 9.736222,7.93408 15.367633,10.35963 7.157059,3.04671 15.615617,5.36241 23.397613,4.44558 9.064443,-0.52696 16.414773,-2.53945 24.263793,-4.88141 8.22643,-2.59376 15.79576,-5.41525 23.20756,-9.83034 8.90746,-5.4131 17.24914,-10.69244 23.44282,-19.15178 1.35733,-1.8493 5.35138,-6.21808 5.65713,-8.50711 0.65694,-3.91023 -0.24419,-9.39741 -1.49479,-13.11599 -2.0492,-6.21545 -4.12983,-13.08039 -7.21393,-18.82518 -5.06177,-9.15631 -9.62968,-16.97771 -15.98705,-25.31004 -2.91211,-3.44126 -6.18545,-6.37287 -10.43764,-7.5304 -2.74225,-0.72343 -6.25386,-2.11688 -9.96472,-2.38028 -1.37898,-0.0271 -4.55837,-0.36989 -7.62929,-0.0318 -5.14049,-2.899043 -10.02294,-6.267956 -15.18913,-9.118748 -5.52209,-3.013564 -13.049268,-6.066515 -19.071887,-7.803738 -7.131243,-2.033648 -13.003848,-2.988846 -20.366776,-3.60292 -0.750924,-0.0866 -6.071321,0.113677 -6.826063,0.126227 z"
       sodipodi:nodetypes="cccccccccccccccccccccccccc" /><ellipse
       style="display:inline;fill:#cee3e8;fill-opacity:1;stroke:#126278;stroke-width:0;stroke-dasharray:none;stroke-opacity:1"
       id="path419-9"
       cx="101.71807"
       cy="140.96164"
       rx="23.571106"
       ry="23.263763" /><path
       style="display:inline;fill:none;stroke:#136479;stroke-width:5.64444;stroke-dasharray:none;stroke-opacity:1"
       d="m 151.33542,110.15247 c 1.54348,0.0935 3.08696,0.18709 4.49793,0.42875 1.41098,0.24166 2.68939,0.63141 4.10816,1.26285 1.41877,0.63143 2.97781,1.50449 4.47454,2.58806 1.49672,1.08357 2.93105,2.37757 4.09256,3.65602 1.16152,1.27845 2.05017,2.54128 2.75176,3.78855 0.70158,1.24727 1.21607,2.47891 1.58245,3.46893 0.36638,0.99002 0.58465,1.73836 0.70159,2.27624 0.11693,0.53789 0.13253,0.86528 0.21829,1.63703 0.0858,0.77176 0.24166,1.98781 0.28843,3.32084 0.0468,1.33302 -0.0156,2.78292 -0.1637,4.13933 -0.14812,1.3564 -0.38198,2.61923 -0.69379,3.81972 -0.31182,1.2005 -0.70158,2.3386 -0.99001,3.07916 -0.28843,0.74057 -0.47551,1.08356 -0.6626,1.42655"
       id="path418"
       inkscape:path-effect="#path-effect418"
       inkscape:original-d="m 151.33542,110.15247 c 0,0 3.08696,0.18709 4.63044,0.28063 1.27847,0.38977 2.55688,0.77954 3.83532,1.1693 1.5591,0.8731 3.11814,1.74616 4.67722,2.61924 1.43437,1.29406 2.86869,2.58807 4.30304,3.88209 0.88868,1.26288 1.77734,2.5257 2.66601,3.78855 0.5145,1.23169 1.02899,2.46333 1.54348,3.695 0.21827,0.74837 0.43654,1.49671 0.65481,2.24506 0.0156,0.32742 0.0312,0.65481 0.0468,0.98222 0.15591,1.2161 0.31182,2.43215 0.46773,3.64823 -0.0624,1.44997 -0.12473,2.89987 -0.18709,4.34981 -0.23387,1.26287 -0.46773,2.5257 -0.70159,3.78855 -0.38977,1.13814 -0.77953,2.27624 -1.1693,3.41437 -0.18709,0.343 -0.56126,1.02898 -0.56126,1.02898"
       sodipodi:nodetypes="cccccccccccccc"
       transform="translate(-3.1337352,1.0289877)" /><ellipse
       style="display:inline;opacity:1;fill:#ffffff;fill-opacity:1;stroke:none;stroke-width:0;stroke-dasharray:none;stroke-opacity:0.445376"
       id="path420"
       cx="106.82553"
       cy="136.88881"
       rx="19.84375"
       ry="20.075258" /><ellipse
       style="display:inline;opacity:1;fill:#136479;fill-opacity:1;stroke:none;stroke-width:0;stroke-dasharray:none;stroke-opacity:0.445376"
       id="path421"
       cx="99.351051"
       cy="141.75052"
       rx="8.0036459"
       ry="7.6729169" /><ellipse
       style="display:inline;opacity:1;fill:#ffffff;fill-opacity:1;stroke:none;stroke-width:0;stroke-dasharray:none;stroke-opacity:0.445376"
       id="path422"
       cx="95.250008"
       cy="138.04634"
       rx="3.4395833"
       ry="3.7041667" /><path
       style="display:inline;opacity:1;fill:#28b5bc;fill-opacity:1;stroke:#136479;stroke-width:3.99459;stroke-dasharray:none;stroke-opacity:1"
       d="m 81.293231,128.05834 c 15.36788,5.5342 30.735769,11.0684 46.103649,16.6026 m -44.446353,-16.696 c 0,0 42.726413,16.29195 42.726413,16.29195 0.45942,-1.84476 0.91885,-3.68952 0.92928,-5.7105 0.0104,-2.02097 -0.42809,-4.21806 -1.2843,-6.57067 -0.85621,-2.35262 -2.13004,-4.86062 -3.71716,-6.95413 -1.58712,-2.09352 -3.48743,-3.77243 -5.89943,-5.11974 -2.41201,-1.34731 -5.33555,-2.36294 -8.33228,-2.85004 -2.99673,-0.4871 -6.06645,-0.44565 -9.063176,0.15547 -2.996727,0.60111 -5.920276,1.76184 -8.46799,3.64806 -2.547714,1.88622 -4.719535,4.49791 -6.891357,7.1096 z"
       id="path424"
       inkscape:path-effect="#path-effect424"
       inkscape:original-d="m 81.293231,128.05834 c 15.36788,5.5342 46.103649,16.6026 46.103649,16.6026 m -44.446353,-16.696 42.726413,16.29195 c 0,0 0.91885,-3.68952 1.37827,-5.53429 -0.43855,-2.19718 -0.87708,-4.39427 -1.31562,-6.5914 -1.27388,-2.5081 -2.54771,-5.0161 -3.82157,-7.52415 -1.90038,-1.67898 -3.80069,-3.35788 -5.70103,-5.03683 -2.92367,-1.01567 -5.84721,-2.03131 -8.77082,-3.04697 -3.06985,0.0415 -6.13957,0.0829 -9.20936,0.12437 -2.923664,1.16077 -5.847212,2.3215 -8.770818,3.48225 -2.171822,2.61169 -6.515465,7.83507 -6.515465,7.83507 z"
       transform="matrix(1.0540929,0,0,1.1215627,-5.4454395,-16.714781)"
       sodipodi:nodetypes="cccccccccccc" /><ellipse
       style="display:inline;fill:none;fill-opacity:1;stroke:#136479;stroke-width:5.44955;stroke-dasharray:none;stroke-opacity:1"
       id="path419"
       cx="102.6827"
       cy="139.62032"
       rx="25.266121"
       ry="25.758207" /><path
       style="display:inline;opacity:1;fill:#136479;fill-opacity:1;stroke:none;stroke-width:5.30834;stroke-dasharray:none;stroke-opacity:1"
       d="m 151.60901,153.67331 c 0.41616,0.1819 1.2485,0.5457 1.95682,0.97014 0.70831,0.42444 1.29259,0.9095 1.78593,1.36426 0.49334,0.45476 0.89572,0.87918 1.17409,1.40284 0.27836,0.52366 0.4327,1.14653 0.49058,1.70326 0.0579,0.55673 0.0193,1.0473 -0.011,1.62609 -0.0303,0.57878 -0.0523,1.24574 -0.0799,1.59578 -0.0276,0.35003 -0.0606,0.38306 -0.0937,0.41613 -0.50712,-0.53468 -1.01423,-1.06935 -1.51584,-1.52135 -0.50162,-0.452 -0.9977,-0.82131 -1.47726,-1.1107 -0.47956,-0.28939 -0.94258,-0.49885 -1.43592,-0.6339 -0.49334,-0.13504 -1.01698,-0.19568 -1.48828,-0.27009 -0.47129,-0.0744 -0.89021,-0.16261 -1.25953,-0.34727 -0.36931,-0.18466 -0.68901,-0.46577 -0.87367,-0.85162 -0.18466,-0.38586 -0.23426,-0.87644 -0.21221,-1.28158 0.0221,-0.40515 0.11575,-0.72485 0.25907,-1.09141 0.14332,-0.36656 0.33624,-0.77997 0.5898,-1.09968 0.25356,-0.3197 0.56775,-0.54569 0.87367,-0.70555 0.30593,-0.15985 0.60358,-0.25355 0.75241,-0.30041 0.14883,-0.0469 0.14876,-0.0468 0.56493,0.13506 z m -77.856404,4.38216 c -1.212674,0.28663 -2.425348,0.57327 -3.5333,0.91502 -1.107952,0.34176 -2.111145,0.73863 -2.971048,1.24024 -0.859903,0.50161 -1.576471,1.10794 -2.182813,1.79145 -0.606342,0.68352 -1.102425,1.44418 -1.648133,2.28203 -0.545708,0.83786 -1.141008,1.75286 -1.73632,2.66788 -0.209462,-0.79375 -0.418924,-1.5875 -0.424434,-2.5356 -0.0055,-0.94811 0.192922,-2.05051 0.418924,-3.03169 0.226001,-0.98117 0.479556,-1.84105 0.832339,-2.57968 0.352782,-0.73864 0.804765,-1.35598 1.245743,-1.83555 0.440978,-0.47956 0.870914,-0.8213 1.449698,-1.04179 0.578784,-0.22049 1.306375,-0.3197 2.000913,-0.29765 0.694538,0.022 1.355982,0.16536 2.127693,0.37483 0.77171,0.20946 1.653637,0.48506 2.408807,0.83784 0.755171,0.35278 1.383546,0.78272 2.011931,1.21267 z m 93.438574,16.40873 c -2.43215,0.26504 -4.8643,0.53008 -7.53035,0.93544 -2.66604,0.40537 -5.56585,0.95103 -8.88671,1.60585 -3.32087,0.65482 -7.06256,1.41875 -10.82776,2.20609 -3.7652,0.78734 -7.55367,1.59804 -11.91912,2.30742 -4.36545,0.70939 -9.30761,1.31741 -13.52493,1.6838 -4.21733,0.36638 -7.70958,0.4911 -10.399,0.51449 -2.68942,0.0234 -4.575862,-0.0546 -6.953476,-0.43655 -2.377614,-0.38198 -5.246247,-1.06796 -7.421169,-1.77734 -2.174922,-0.70939 -3.656007,-1.44214 -5.293053,-2.32302 -1.637046,-0.88089 -3.429941,-1.90985 -4.957845,-3.0246 -1.527903,-1.11475 -2.790725,-2.31521 -3.843107,-3.32862 -1.052382,-1.0134 -1.894269,-1.8397 -2.525697,-2.5179 -0.631427,-0.6782 -1.052366,-1.20827 -1.527888,-2.04239 -0.475522,-0.83411 -1.005598,-1.97222 -1.535683,-3.11034 0.623629,0.18709 1.247258,0.37418 2.011214,0.80293 0.763956,0.42876 1.668197,1.09914 2.634833,1.77734 0.966635,0.67821 1.995603,1.36419 3.49233,2.27626 1.496726,0.91206 3.461118,2.05016 5.394388,3.02459 1.933269,0.97443 3.835299,1.78513 6.228505,2.56468 2.393205,0.77954 5.277432,1.52788 8.39561,2.01119 3.118178,0.48331 6.470118,0.70158 9.713018,0.6704 3.2429,-0.0312 6.37657,-0.31181 10.00925,-0.80292 3.63268,-0.49112 7.76414,-1.19269 13.01828,-2.13594 5.25414,-0.94325 11.63061,-2.12812 16.54172,-3.06357 4.91112,-0.93545 8.3566,-1.62143 10.89011,-2.07356 2.53351,-0.45214 4.15491,-0.6704 6.01802,-0.87308 1.86311,-0.20268 3.96782,-0.38977 5.75297,-0.5145 1.78515,-0.12472 3.25065,-0.18709 2.70495,0.76397 -0.5457,0.95105 -3.10253,2.91545 -5.65941,4.87988 z"
       id="path426"
       inkscape:path-effect="#path-effect426"
       inkscape:original-d="m 151.19284,153.49141 c 0.83233,0.3638 1.66467,0.7276 2.497,1.0914 0.5843,0.48508 1.16858,0.97014 1.75287,1.45521 0.40239,0.42445 0.80477,0.84887 1.20716,1.27331 0.15434,0.62288 0.30868,1.24575 0.46302,1.86862 -0.0386,0.49059 -0.0772,0.98116 -0.11575,1.47174 -0.022,0.66699 -0.0441,1.33395 -0.0661,2.00092 -0.0331,0.0331 -0.0992,0.0992 -0.0992,0.0992 0,0 -1.01423,-1.06935 -1.52135,-1.60403 -0.49611,-0.36932 -0.99219,-0.73863 -1.48828,-1.10794 -0.46303,-0.20947 -0.92605,-0.41893 -1.38907,-0.62839 -0.52366,-0.0606 -1.0473,-0.12127 -1.57096,-0.1819 -0.41893,-0.0882 -0.83785,-0.17639 -1.25677,-0.26458 -0.31971,-0.28113 -0.63941,-0.56224 -0.95912,-0.84336 -0.0496,-0.49059 -0.0992,-0.98117 -0.14882,-1.47175 0.0937,-0.31971 0.18741,-0.63941 0.28112,-0.95911 0.19293,-0.41342 0.38585,-0.82683 0.57877,-1.24024 0.3142,-0.226 0.62839,-0.45199 0.94258,-0.67799 0.29766,-0.0937 0.59531,-0.18741 0.89297,-0.28112 z m -77.440234,4.56406 c 0,0 -2.425347,0.57327 -3.638021,0.8599 -1.003231,0.39688 -2.006423,0.79375 -3.009635,1.19062 -0.716594,0.60635 -1.43316,1.21268 -2.14974,1.81901 -0.496103,0.7607 -0.992187,1.52136 -1.488281,2.28203 -0.595324,0.91504 -1.785937,2.74506 -1.785937,2.74506 0,0 -0.418924,-1.5875 -0.628386,-2.38125 0.198442,-1.10246 0.396875,-2.20486 0.595313,-3.3073 0.253564,-0.85991 0.507118,-1.71979 0.760677,-2.57968 0.452005,-0.61738 0.903993,-1.23472 1.355989,-1.85209 0.429957,-0.34176 0.859896,-0.6835 1.289844,-1.02526 0.727619,-0.0992 1.455208,-0.19843 2.182813,-0.29765 0.661471,0.14332 1.322916,0.28663 1.984375,0.42995 0.881962,0.27561 1.763889,0.55121 2.645833,0.82682 0.628398,0.42995 1.885156,1.28984 1.885156,1.28984 z m 93.438574,16.40873 c 0,0 -4.8643,0.53008 -7.29645,0.79512 -2.89994,0.54569 -5.79975,1.09135 -8.69963,1.63703 -3.74185,0.76396 -7.48354,1.52789 -11.22532,2.29183 -3.78862,0.81074 -7.57709,1.62144 -11.36563,2.43216 -4.94236,0.60805 -9.88452,1.21607 -14.82678,1.82411 -3.49239,0.12473 -6.98464,0.24945 -10.47697,0.37418 -1.88651,-0.078 -3.772952,-0.15591 -5.659429,-0.23386 -2.86875,-0.68601 -5.737386,-1.37198 -8.606079,-2.05798 -1.481148,-0.73278 -2.962237,-1.46552 -4.443356,-2.19829 -1.792969,-1.02901 -3.585866,-2.05797 -5.378799,-3.08696 -1.262874,-1.20051 -2.525697,-2.40097 -3.788545,-3.60146 -0.841916,-0.82632 -1.683798,-1.65262 -2.525697,-2.47892 -0.420958,-0.5301 -0.841899,-1.06017 -1.262849,-1.59026 -0.530095,-1.13814 -1.590254,-3.41437 -1.590254,-3.41437 0,0 1.247258,0.37418 1.870887,0.56127 0.90428,0.67042 1.808524,1.3408 2.712786,2.0112 1.029008,0.68601 2.057975,1.37199 3.086963,2.05798 1.96447,1.13814 3.928862,2.27624 5.893293,3.41437 1.902106,0.81073 3.804136,1.62143 5.706204,2.43215 2.884342,0.74837 5.768568,1.49671 8.652851,2.24506 3.352074,0.21828 6.704014,0.43654 10.056014,0.65481 3.1338,-0.28063 6.26747,-0.56126 9.40121,-0.84189 4.13162,-0.7016 8.26308,-1.40317 12.39462,-2.10475 6.37674,-1.18492 12.75321,-2.36979 19.12982,-3.55469 3.44562,-0.686 6.8911,-1.37198 10.33665,-2.05797 1.62147,-0.21828 3.24287,-0.43654 4.8643,-0.65481 2.10479,-0.18709 4.2095,-0.37418 6.31425,-0.56127 1.46555,-0.0624 2.93105,-0.12472 4.39658,-0.18709 -2.55693,1.96447 -7.67064,5.8933 -7.67064,5.8933 z" /></g></svg>
